<svg width="32" height="37" viewBox="0 0 32 37" fill="none" xmlns="http://www.w3.org/2000/svg">
<g filter="url(#filter0_d_42_106)">
<path d="M18 28H14" stroke="#F2F2F2" stroke-width="2" stroke-linecap="round" stroke-linejoin="round"/>
<path d="M15.3751 2.47499C13.0001 4.37499 5.06255 11.975 12.0001 24H20.0001C26.8001 11.975 18.9751 4.38749 16.6251 2.47499C16.4497 2.32854 16.2285 2.24832 16.0001 2.24832C15.7716 2.24832 15.5504 2.32854 15.3751 2.47499Z" stroke="#F2F2F2" stroke-width="2" stroke-linecap="round" stroke-linejoin="round"/>
<path d="M9.23744 13.925L5.31244 18.625C5.21356 18.7403 5.14379 18.8777 5.10899 19.0256C5.07419 19.1735 5.07538 19.3276 5.11244 19.475L6.64994 26.4375C6.68704 26.603 6.76563 26.7563 6.87831 26.8831C6.99099 27.0099 7.13405 27.1059 7.29406 27.1621C7.45407 27.2184 7.62575 27.233 7.79297 27.2047C7.96018 27.1763 8.11744 27.1059 8.24994 27L11.9999 24" stroke="#F2F2F2" stroke-width="2" stroke-linecap="round" stroke-linejoin="round"/>
<path d="M22.6875 13.825L26.6875 18.625C26.7864 18.7404 26.8561 18.8778 26.8909 19.0257C26.9257 19.1736 26.9246 19.3277 26.8875 19.475L25.35 26.4375C25.3129 26.603 25.2343 26.7564 25.1216 26.8831C25.009 27.0099 24.8659 27.1059 24.7059 27.1622C24.5459 27.2184 24.3742 27.233 24.207 27.2047C24.0398 27.1763 23.8825 27.1059 23.75 27L20 24" stroke="#F2F2F2" stroke-width="2" stroke-linecap="round" stroke-linejoin="round"/>
<path d="M16 13.5C16.8284 13.5 17.5 12.8284 17.5 12C17.5 11.1716 16.8284 10.5 16 10.5C15.1716 10.5 14.5 11.1716 14.5 12C14.5 12.8284 15.1716 13.5 16 13.5Z" fill="#F2F2F2"/>
</g>
<defs>
<filter id="filter0_d_42_106" x="-4" y="0" width="40" height="40" filterUnits="userSpaceOnUse" color-interpolation-filters="sRGB">
<feFlood flood-opacity="0" result="BackgroundImageFix"/>
<feColorMatrix in="SourceAlpha" type="matrix" values="0 0 0 0 0 0 0 0 0 0 0 0 0 0 0 0 0 0 127 0" result="hardAlpha"/>
<feOffset dy="4"/>
<feGaussianBlur stdDeviation="2"/>
<feComposite in2="hardAlpha" operator="out"/>
<feColorMatrix type="matrix" values="0 0 0 0 0 0 0 0 0 0 0 0 0 0 0 0 0 0 0.25 0"/>
<feBlend mode="normal" in2="BackgroundImageFix" result="effect1_dropShadow_42_106"/>
<feBlend mode="normal" in="SourceGraphic" in2="effect1_dropShadow_42_106" result="shape"/>
</filter>
</defs>
</svg>
