<svg width="32" height="32" viewBox="0 0 32 32" fill="none" xmlns="http://www.w3.org/2000/svg">
<path d="M16 20C18.7614 20 21 17.7614 21 15C21 12.2386 18.7614 10 16 10C13.2386 10 11 12.2386 11 15C11 17.7614 13.2386 20 16 20Z" stroke="#F2F2F2" stroke-width="2" stroke-miterlimit="10"/>
<path d="M7.97498 24.925C8.72736 23.443 9.87542 22.1983 11.2919 21.3289C12.7084 20.4595 14.3379 19.9992 16 19.9992C17.662 19.9992 19.2916 20.4595 20.708 21.3289C22.1245 22.1983 23.2726 23.443 24.025 24.925" stroke="#F2F2F2" stroke-width="2" stroke-linecap="round" stroke-linejoin="round"/>
<path d="M22 7H28" stroke="#F2F2F2" stroke-width="2" stroke-linecap="round" stroke-linejoin="round"/>
<path d="M25 4V10" stroke="#F2F2F2" stroke-width="2" stroke-linecap="round" stroke-linejoin="round"/>
<path d="M27.85 14.1125C27.9511 14.7366 28.0012 15.3678 28 16C28 18.3734 27.2962 20.6934 25.9776 22.6668C24.6591 24.6402 22.7849 26.1783 20.5922 27.0865C18.3995 27.9948 15.9867 28.2324 13.6589 27.7694C11.3312 27.3064 9.19295 26.1635 7.51472 24.4853C5.83649 22.807 4.6936 20.6688 4.23058 18.3411C3.76756 16.0133 4.0052 13.6005 4.91345 11.4078C5.8217 9.21508 7.35977 7.34093 9.33316 6.02236C11.3066 4.70378 13.6266 3.99999 16 3.99999C16.6322 3.99875 17.2634 4.04892 17.8875 4.14999" stroke="#F2F2F2" stroke-width="2" stroke-linecap="round" stroke-linejoin="round"/>
</svg>
